<svg xmlns="http://www.w3.org/2000/svg" viewBox="0 0 192 192" width="192" height="192">
  <rect width="192" height="192" rx="40" fill="#f0ede6"/>
  <rect x="28" y="28" width="136" height="136" rx="16" fill="#161616" stroke="#2a2a2a" stroke-width="2"/>
  <!-- grid cells -->
  <rect x="38" y="38" width="34" height="34" rx="6" fill="#1e1e1e"/>
  <rect x="80" y="38" width="34" height="34" rx="6" fill="#c8f04a"/>
  <rect x="120" y="38" width="34" height="34" rx="6" fill="#1e1e1e"/>
  <rect x="38" y="79" width="34" height="34" rx="6" fill="#1e1e1e"/>
  <rect x="80" y="79" width="34" height="34" rx="6" fill="#1e1e1e"/>
  <rect x="120" y="79" width="34" height="34" rx="6" fill="#1e1e1e"/>
  <rect x="38" y="120" width="34" height="34" rx="6" fill="#1e1e1e"/>
  <rect x="80" y="120" width="34" height="34" rx="6" fill="#1e1e1e"/>
  <rect x="120" y="120" width="34" height="34" rx="6" fill="#ff4d4d" opacity=".8"/>
  <!-- mine symbol -->
  <circle cx="137" cy="137" r="9" fill="#f0ede6"/>
  <line x1="137" y1="124" x2="137" y2="150" stroke="#0a0a0a" stroke-width="3" stroke-linecap="round"/>
  <line x1="124" y1="137" x2="150" y2="137" stroke="#0a0a0a" stroke-width="3" stroke-linecap="round"/>
  <line x1="128" y1="128" x2="146" y2="146" stroke="#0a0a0a" stroke-width="2.5" stroke-linecap="round"/>
  <line x1="146" y1="128" x2="128" y2="146" stroke="#0a0a0a" stroke-width="2.5" stroke-linecap="round"/>
  <!-- number in green cell -->
  <text x="97" y="62" text-anchor="middle" dominant-baseline="middle" font-family="monospace" font-weight="700" font-size="22" fill="#f0ede6">2</text>
</svg>
