<svg xmlns="http://www.w3.org/2000/svg" viewBox="0 0 512 512" width="512" height="512">
  <rect width="512" height="512" rx="100" fill="#0a0a0a"/>
  <rect x="60" y="60" width="392" height="392" rx="40" fill="#161616" stroke="#2a2a2a" stroke-width="4"/>
  <rect x="80" y="80" width="100" height="100" rx="16" fill="#1e1e1e"/>
  <rect x="206" y="80" width="100" height="100" rx="16" fill="#c8f04a"/>
  <rect x="332" y="80" width="100" height="100" rx="16" fill="#1e1e1e"/>
  <rect x="80" y="206" width="100" height="100" rx="16" fill="#1e1e1e"/>
  <rect x="206" y="206" width="100" height="100" rx="16" fill="#1e1e1e"/>
  <rect x="332" y="206" width="100" height="100" rx="16" fill="#1e1e1e"/>
  <rect x="80" y="332" width="100" height="100" rx="16" fill="#1e1e1e"/>
  <rect x="206" y="332" width="100" height="100" rx="16" fill="#1e1e1e"/>
  <rect x="332" y="332" width="100" height="100" rx="16" fill="#ff4d4d" opacity=".85"/>
  <circle cx="382" cy="382" r="26" fill="#0a0a0a"/>
  <line x1="382" y1="344" x2="382" y2="420" stroke="#0a0a0a" stroke-width="8" stroke-linecap="round"/>
  <line x1="344" y1="382" x2="420" y2="382" stroke="#0a0a0a" stroke-width="8" stroke-linecap="round"/>
  <line x1="355" y1="355" x2="409" y2="409" stroke="#0a0a0a" stroke-width="6" stroke-linecap="round"/>
  <line x1="409" y1="355" x2="355" y2="409" stroke="#0a0a0a" stroke-width="6" stroke-linecap="round"/>
  <text x="256" y="138" text-anchor="middle" dominant-baseline="middle" font-family="monospace" font-weight="700" font-size="58" fill="#0a0a0a">2</text>
</svg>
